<?xml version="1.0" encoding="UTF-8" standalone="no"?>
<!-- Created with Inkscape (http://www.inkscape.org/) -->

<svg
   width="113.647mm"
   height="32.988087mm"
   viewBox="0 0 113.647 32.988087"
   version="1.1"
   id="svg1"
   xml:space="preserve"
   xmlns="http://www.w3.org/2000/svg"
   xmlns:svg="http://www.w3.org/2000/svg"><defs
     id="defs1" /><g
     id="layer2"
     style="display:inline"
     transform="translate(-64.198602,117.7794)"><g
       id="g44-7-9"
       transform="matrix(0.26466544,0,0,0.26466544,48.627024,-138.13236)"
       style="display:inline"><path
         id="path10-5-2"
         style="display:inline;fill:none;stroke:#dcd7d6;stroke-width:9.99998;stroke-linecap:butt;stroke-linejoin:round;stroke-dasharray:none;stroke-dashoffset:0;stroke-opacity:1"
         d="m 119.02733,124.98501 v 48.89882 c 8.74871,-0.0644 17.49719,-0.12876 21.87154,-8.27857 4.37436,-8.14981 4.37435,-24.38531 0,-32.50293 -4.37435,-8.1176 -13.12282,-8.11732 -21.87154,-8.11732 z" /><g
         id="g43-6-5"
         transform="translate(9.7768968)"><g
           id="g6-9-7"
           transform="rotate(-90,122.14538,186.41584)"><rect
             style="opacity:1;fill:#1e1c1f;fill-opacity:1;stroke-width:0.996309;stroke-linecap:round;stroke-linejoin:round"
             id="rect1-8-4"
             width="59.359161"
             height="80.888191"
             x="-182.61882"
             y="121.63258"
             transform="rotate(-90)" /><rect
             style="fill:#1e1c1f;fill-opacity:1;stroke-width:0.523138;stroke-linecap:round;stroke-linejoin:round"
             id="rect1-1-7-9"
             width="59.359161"
             height="22.301292"
             x="-182.61882"
             y="147.97658"
             transform="rotate(-90)" /><rect
             style="opacity:1;fill:#dcd7d6;fill-opacity:1;stroke-width:1;stroke-linecap:round;stroke-linejoin:round"
             id="rect4-2-9"
             width="22.301292"
             height="8.4022789"
             x="147.97658"
             y="167.55484"
             ry="1.3829868" /><rect
             style="display:inline;fill:#444851;fill-opacity:1;stroke-width:0.644821;stroke-linecap:round;stroke-linejoin:round"
             id="rect4-8-82-4"
             width="22.301292"
             height="3.4936221"
             x="147.97658"
             y="162.97955"
             ry="0.57503843" /><g
             id="g4-9-5"
             style="fill:#444851;fill-opacity:1"><rect
               style="display:inline;fill:#444851;fill-opacity:1;stroke-width:0.809555;stroke-linecap:round;stroke-linejoin:round"
               id="rect4-8-2-96-9"
               width="22.301292"
               height="5.5066781"
               x="147.97658"
               y="177.11214"
               ry="0.90638071" /><rect
               style="display:inline;fill:#444851;fill-opacity:1;stroke-width:0.706018;stroke-linecap:round;stroke-linejoin:round"
               id="rect4-8-2-9-0-3"
               width="22.301292"
               height="4.1882153"
               x="147.97658"
               y="178.4306"
               ry="0" /></g><rect
             style="display:inline;fill:#444851;fill-opacity:1;stroke-width:0.644821;stroke-linecap:round;stroke-linejoin:round"
             id="rect4-8-1-2-5"
             width="22.301292"
             height="3.4936221"
             x="147.97658"
             y="158.40428"
             ry="0.57503843" /><rect
             style="display:inline;fill:#444851;fill-opacity:1;stroke-width:0.644821;stroke-linecap:round;stroke-linejoin:round"
             id="rect4-8-1-0-7-7"
             width="22.301292"
             height="3.4936221"
             x="147.97658"
             y="153.82901"
             ry="0.57503843" /><rect
             style="display:inline;fill:#444851;fill-opacity:1;stroke-width:0.644821;stroke-linecap:round;stroke-linejoin:round"
             id="rect4-8-8-6-0"
             width="22.301292"
             height="3.4936221"
             x="147.97658"
             y="149.25374"
             ry="0.57503843" /><rect
             style="display:inline;fill:#444851;fill-opacity:1;stroke-width:0.644821;stroke-linecap:round;stroke-linejoin:round"
             id="rect4-8-1-7-1-8"
             width="22.301292"
             height="3.4936221"
             x="147.97658"
             y="144.67847"
             ry="0.57503843" /><rect
             style="display:inline;fill:#444851;fill-opacity:1;stroke-width:0.644821;stroke-linecap:round;stroke-linejoin:round"
             id="rect4-8-1-0-1-3-1"
             width="22.301292"
             height="3.4936221"
             x="147.97658"
             y="140.1032"
             ry="0.57503843" /><rect
             style="display:inline;fill:#444851;fill-opacity:1;stroke-width:0.644821;stroke-linecap:round;stroke-linejoin:round"
             id="rect4-8-22-2-9"
             width="22.301292"
             height="3.4936221"
             x="147.97658"
             y="135.52792"
             ry="0.57503843" /><rect
             style="display:inline;fill:#444851;fill-opacity:1;stroke-width:0.644821;stroke-linecap:round;stroke-linejoin:round"
             id="rect4-8-1-6-1-9"
             width="22.301292"
             height="3.4936221"
             x="147.97658"
             y="130.95265"
             ry="0.57503843" /><rect
             style="display:inline;fill:#444851;fill-opacity:1;stroke-width:0.644821;stroke-linecap:round;stroke-linejoin:round"
             id="rect4-8-1-0-10-5-7"
             width="22.301292"
             height="3.4936221"
             x="147.97658"
             y="126.37738"
             ry="0.57503843" /><g
             id="g5-9-8"><rect
               style="display:inline;fill:#444851;fill-opacity:1;stroke-width:0.492263;stroke-linecap:round;stroke-linejoin:round"
               id="rect4-8-1-0-10-9-91-2"
               width="22.301292"
               height="2.0360682"
               x="147.97658"
               y="123.25966"
               ry="0.33513001" /><rect
               style="display:inline;fill:#444851;fill-opacity:1;stroke-width:0.356854;stroke-linecap:round;stroke-linejoin:round"
               id="rect4-8-1-0-10-9-9-4-5"
               width="22.301292"
               height="1.0699902"
               x="147.97658"
               y="123.25966"
               ry="7.4680574e-15" /></g><g
             id="g7-9-3"><rect
               style="fill:#dcd7d6;fill-opacity:1;stroke-width:0.731807;stroke-linecap:round;stroke-linejoin:round"
               id="rect4-7-1-4"
               width="16.32024"
               height="6.1488457"
               x="126.74936"
               y="164.48042"
               ry="1.0120792" /><rect
               style="fill:#dcd7d6;fill-opacity:1;stroke-width:0.731807;stroke-linecap:round;stroke-linejoin:round"
               id="rect4-7-0-0-9"
               width="16.32024"
               height="6.1488457"
               x="159.39473"
               y="-137.98393"
               ry="1.0120792"
               transform="rotate(90)" /></g><rect
             style="fill:#dcd7d6;fill-opacity:1;stroke-width:0.629809;stroke-linecap:round;stroke-linejoin:round"
             id="rect4-9-7-0"
             width="8.8460073"
             height="8.4022789"
             x="173.59734"
             y="167.55484"
             ry="1.3829868" /><rect
             style="fill:#dcd7d6;fill-opacity:1;stroke-width:0.629809;stroke-linecap:round;stroke-linejoin:round"
             id="rect4-9-5-5-2"
             width="8.8460073"
             height="8.4022789"
             x="184.09001"
             y="167.55484"
             ry="1.3829868" /><g
             id="g8-8-0"
             transform="translate(-0.38271904)"><rect
               style="opacity:1;fill:#444851;fill-opacity:1;stroke-width:1;stroke-linecap:round;stroke-linejoin:round"
               id="rect7-70-1"
               width="6.926075"
               height="2.5887444"
               x="150.88089"
               y="170.49829"
               rx="0"
               ry="1.1267223" /><rect
               style="display:inline;fill:#444851;fill-opacity:1;stroke-width:1;stroke-linecap:round;stroke-linejoin:round"
               id="rect7-1-4-9"
               width="6.926075"
               height="2.5887444"
               x="161.21292"
               y="170.49829"
               rx="0"
               ry="1.1267223" /></g><g
             id="g9-8-6"
             transform="matrix(1,0,0,0.66494705,-0.24009609,55.192048)"><rect
               style="display:inline;fill:#972b24;fill-opacity:1;stroke-width:0.816443;stroke-linecap:round;stroke-linejoin:round"
               id="rect7-7-0-2"
               width="8.1407528"
               height="1.4681271"
               x="149.50841"
               y="163.99231"
               rx="0"
               ry="0.63898611" /><rect
               style="display:inline;fill:#972b24;fill-opacity:1;stroke-width:0.816443;stroke-linecap:round;stroke-linejoin:round"
               id="rect7-7-3-4-1"
               width="8.1407528"
               height="1.4681271"
               x="161.08548"
               y="163.99231"
               rx="0"
               ry="0.63898611" /></g><circle
             style="opacity:1;fill:#972b24;fill-opacity:1;stroke-width:1;stroke-linecap:round;stroke-linejoin:round"
             id="path9-2-2"
             cx="178.02034"
             cy="171.75597"
             r="3.3748343" /><circle
             style="display:inline;fill:#972b24;fill-opacity:1;stroke-width:1;stroke-linecap:round;stroke-linejoin:round"
             id="path9-3-9-0"
             cx="188.51302"
             cy="171.75598"
             r="3.3748343" /></g><path
           id="rect2-6-7"
           style="fill:#dcd7d6;stroke-width:0.930341;stroke-linecap:round;stroke-linejoin:round"
           d="m 58.924131,186.92862 c 0,0 -3.165698,0.1047 -3.165698,6.22443 0,6.16572 3.165698,6.22442 3.165698,6.22442 H 118.2833 c 0,0 3.1657,-0.0587 3.1657,-6.22442 0,-6.11973 -3.1657,-6.22443 -3.1657,-6.22443 z" /><g
           id="g3-1-3"
           transform="translate(-8.2400323,-4.7731952)"><rect
             style="opacity:1;fill:#dcd7d6;fill-opacity:1;stroke-width:1;stroke-linecap:round;stroke-linejoin:round"
             id="rect3-0-1"
             width="5.2011342"
             height="26.550713"
             x="64.563515"
             y="114.80742" /><circle
             style="opacity:1;fill:#dcd7d6;fill-opacity:1;stroke-width:1;stroke-linecap:round;stroke-linejoin:round"
             id="path3-4-1"
             cx="67.164078"
             cy="141.35812"
             r="2.6005666" /></g><g
           id="g3-7-2-9"
           transform="translate(1.614946,-22.042354)"><rect
             style="opacity:1;fill:#dcd7d6;fill-opacity:1;stroke-width:1;stroke-linecap:round;stroke-linejoin:round"
             id="rect3-3-2-0"
             width="5.2011342"
             height="26.550713"
             x="64.563515"
             y="114.80742" /><circle
             style="opacity:1;fill:#dcd7d6;fill-opacity:1;stroke-width:1;stroke-linecap:round;stroke-linejoin:round"
             id="path3-6-2-5"
             cx="67.164078"
             cy="141.35812"
             r="2.6005666" /></g><circle
           style="fill:#dcd7d6;fill-opacity:1;stroke-width:1;stroke-linecap:round;stroke-linejoin:round"
           id="path3-6-4-0-6"
           cx="68.779022"
           cy="127.78305"
           r="2.6005666" /><path
           id="path2-5-7"
           style="fill:#dcd7d6;fill-opacity:1;stroke-width:1;stroke-linecap:round;stroke-linejoin:round"
           d="m 78.520868,76.900716 a 15.864758,15.864758 0 0 0 -13.579533,7.715808 15.864758,15.864758 0 0 0 -0.0186,-5.16e-4 15.864758,15.864758 0 0 0 -15.864665,15.865182 15.864758,15.864758 0 0 0 15.864665,15.86466 15.864758,15.864758 0 0 0 11.338843,-4.82451 9.2305384,9.2457867 0 0 0 5.200199,1.62471 9.2305384,9.2457867 0 0 0 4.147034,-1.00614 12.531778,12.531778 0 0 0 9.273846,4.12791 12.531778,12.531778 0 0 0 11.374503,-7.28018 13.411827,13.411827 0 0 0 6.06785,1.4826 13.411827,13.411827 0 0 0 13.41158,-13.411576 13.411827,13.411827 0 0 0 -13.41158,-13.412106 13.411827,13.411827 0 0 0 -2.03295,0.163297 13.091249,13.091249 0 0 0 -11.058243,-6.092134 13.091249,13.091249 0 0 0 -9.35344,3.978051 15.864758,15.864758 0 0 0 -11.359505,-4.795056 z" /></g></g><g
       id="g54"
       style="fill:#dcd7d6;fill-opacity:1"><path
         style="font-weight:600;font-size:22.5778px;line-height:1.25;font-family:'URW Gothic';-inkscape-font-specification:'URW Gothic Semi-Bold';text-align:center;text-anchor:middle;fill:#dcd7d6;fill-opacity:1;stroke-width:0.264583"
         d="m 156.68855,-90.09874 c 0.11289,1.309513 0.4064,2.144892 1.08374,3.048004 0.99342,1.264356 2.61902,2.009424 4.40267,2.009424 3.00284,0 5.32836,-2.325514 5.32836,-5.350939 0,-1.399824 -0.49671,-2.573869 -1.49014,-3.476981 -0.65475,-0.609601 -1.17404,-0.880535 -2.82222,-1.512713 -1.58045,-0.587023 -1.6256,-0.609601 -1.85138,-0.745067 -0.6096,-0.383823 -0.92569,-0.903112 -0.92569,-1.512713 0,-0.993423 0.69991,-1.693335 1.71591,-1.693335 1.03858,0 1.67076,0.632178 1.76107,1.761068 h 3.20605 c -0.0677,-1.264356 -0.36125,-2.122313 -1.03858,-2.957688 -0.90311,-1.12889 -2.34809,-1.78365 -3.90596,-1.78365 -2.70934,0 -4.85423,2.09974 -4.85423,4.741338 0,2.099736 1.2192,3.70276 3.47698,4.538138 2.2352,0.835379 2.39325,0.903112 2.88996,1.286935 0.49671,0.4064 0.76765,0.993423 0.76765,1.693335 0,1.196623 -0.92569,2.032002 -2.25778,2.032002 -1.37725,0 -2.12232,-0.677334 -2.25778,-2.077158 z"
         id="path53" /><path
         style="font-weight:600;font-size:22.5778px;line-height:1.25;font-family:'URW Gothic';-inkscape-font-specification:'URW Gothic Semi-Bold';text-align:center;text-anchor:middle;fill:#dcd7d6;fill-opacity:1;stroke-width:0.264583"
         d="m 146.09954,-85.334824 h 8.96339 v -2.957692 h -5.87023 v -3.883381 h 5.62187 v -2.957692 h -5.62187 v -3.928537 h 5.87023 v -2.957694 h -8.96339 z"
         id="path52" /><path
         style="font-weight:600;font-size:22.5778px;line-height:1.25;font-family:'URW Gothic';-inkscape-font-specification:'URW Gothic Semi-Bold';text-align:center;text-anchor:middle;fill:#dcd7d6;fill-opacity:1;stroke-width:0.264583"
         d="m 129.39198,-85.334824 h 3.09316 v -12.124279 l 6.97654,12.124279 h 3.4544 v -16.684996 h -3.09316 v 12.146858 l -6.90881,-12.146858 h -3.52213 z"
         id="path51" /></g><g
       id="g55"
       style="fill:#972b24;fill-opacity:1;stroke:#dcd7d6;stroke-width:0.5;stroke-dasharray:none;stroke-opacity:1"><path
         style="font-weight:600;font-size:22.5778px;line-height:1.25;font-family:'URW Gothic';-inkscape-font-specification:'URW Gothic Semi-Bold';text-align:center;text-anchor:middle;fill:#972b24;fill-opacity:1;stroke:#dcd7d6;stroke-width:0.5;stroke-dasharray:none;stroke-opacity:1"
         d="m 123.65722,-99.197593 h 3.00285 v -2.822227 h -3.00285 z"
         id="path50" /><path
         style="font-weight:600;font-size:22.5778px;line-height:1.25;font-family:'URW Gothic';-inkscape-font-specification:'URW Gothic Semi-Bold';text-align:center;text-anchor:middle;fill:#972b24;fill-opacity:1;stroke:#dcd7d6;stroke-width:0.5;stroke-dasharray:none;stroke-opacity:1"
         d="m 168.5419,-89.308517 c 0.13547,1.219202 0.33867,1.873958 0.83538,2.528714 0.8128,1.083735 2.2352,1.738491 3.74792,1.738491 2.50613,0 4.4704,-1.873958 4.4704,-4.267205 0,-1.896535 -0.94827,-2.889958 -3.47698,-3.657603 -1.24178,-0.383823 -1.24178,-0.383823 -1.53529,-0.51929 -0.36125,-0.180622 -0.58702,-0.474133 -0.58702,-0.857956 0,-0.587023 0.49671,-1.038579 1.15146,-1.038579 0.63218,0 1.03858,0.338667 1.17405,0.993423 h 2.93511 c -0.0452,-1.061156 -0.29351,-1.693335 -0.90311,-2.370669 -0.79022,-0.880534 -1.96427,-1.377246 -3.20605,-1.377246 -2.34809,0 -4.15431,1.670758 -4.15431,3.815649 0,1.828802 0.97084,2.86738 3.47698,3.702759 1.12889,0.383823 1.24178,0.428978 1.55787,0.632178 0.36124,0.225778 0.56444,0.564445 0.56444,0.970846 0,0.699912 -0.56444,1.219201 -1.35466,1.219201 -0.88054,0 -1.37725,-0.451556 -1.67076,-1.512713 z"
         id="path54" /><path
         style="font-weight:600;font-size:22.5778px;line-height:1.25;font-family:'URW Gothic';-inkscape-font-specification:'URW Gothic Semi-Bold';text-align:center;text-anchor:middle;fill:#972b24;fill-opacity:1;stroke:#dcd7d6;stroke-width:0.5;stroke-dasharray:none;stroke-opacity:1"
         d="m 123.65722,-85.334824 h 3.00285 v -12.508101 h -3.00285 z"
         id="path49" /><path
         style="font-weight:600;font-size:22.5778px;line-height:1.25;font-family:'URW Gothic';-inkscape-font-specification:'URW Gothic Semi-Bold';text-align:center;text-anchor:middle;fill:#972b24;fill-opacity:1;stroke:#dcd7d6;stroke-width:0.5;stroke-dasharray:none;stroke-opacity:1"
         d="m 121.24139,-97.842925 h -3.00285 v 5.892806 c 0,1.670757 -0.11289,2.46098 -0.47413,3.002847 -0.42898,0.745068 -1.26436,1.151468 -2.28036,1.151468 -0.76765,0 -1.35467,-0.248356 -1.76107,-0.790223 -0.42898,-0.541867 -0.6096,-1.444979 -0.6096,-3.138314 v -6.118584 h -3.00285 v 6.705607 c 0,2.122313 0.24836,3.228625 0.94827,4.244626 0.83538,1.196624 2.16747,1.85138 3.81565,1.85138 1.51271,0 2.4384,-0.383823 3.58987,-1.490135 v 1.196623 h 2.77707 z"
         id="path48" /><path
         style="font-weight:600;font-size:22.5778px;line-height:1.25;font-family:'URW Gothic';-inkscape-font-specification:'URW Gothic Semi-Bold';text-align:center;text-anchor:middle;fill:#972b24;fill-opacity:1;stroke:#dcd7d6;stroke-width:0.5;stroke-dasharray:none;stroke-opacity:1"
         d="m 97.489537,-90.956696 h 6.908803 c -0.88053,1.85138 -2.68675,2.935114 -4.899379,2.935114 -3.273781,0 -5.779917,-2.438402 -5.779917,-5.64445 0,-1.444979 0.609601,-3.025425 1.557869,-4.041426 0.970845,-1.038579 2.438402,-1.625602 4.041426,-1.625602 1.941691,0 3.567291,0.790223 4.583291,2.212624 h 3.63503 c -1.08374,-3.002844 -4.51556,-5.192894 -8.150588,-5.192894 -4.899382,0 -8.782764,3.793071 -8.782764,8.602142 0,4.899383 3.951115,8.669876 9.076276,8.669876 2.528716,0 4.673606,-0.880534 6.321786,-2.573869 1.53529,-1.603024 2.39324,-3.680182 2.39324,-5.825073 v -0.4064 H 97.489537 Z"
         id="text46" /></g></g></svg>
